<?xml version="1.0" encoding="UTF-8"?>
<svg id="Layer_1" xmlns="http://www.w3.org/2000/svg" version="1.1" viewBox="0 0 436.74 343.8">
  <!-- Generator: Adobe Illustrator 30.1.0, SVG Export Plug-In . SVG Version: 2.1.1 Build 136)  -->
  <defs>
    <style>
      .st0 {
        fill: #231f20;
      }

      .st1 {
        fill: #5e6475;
      }

      .st2 {
        fill: none;
        stroke: #5e6475;
        stroke-miterlimit: 10;
        stroke-width: 1.5px;
      }
    </style>
  </defs>
  <path class="st1" d="M36.02,134.95c.3,1.15.59,2.76.87,4.84-.06.07-.11.13-.17.13-.07,0-.15-.04-.22-.13-.71-1.13-1.39-2-2.04-2.6-.65-.59-1.3-1.02-1.95-1.26-.65-.26-1.78-.37-3.36-.37s-2.69.09-3.56.26c-.07.11-.13.3-.13.58,0,.07,0,.2-.04.39-.11.82-.15,3.04-.15,6.68,0,.15,0,.37.04.65.78.04,1.32.04,1.6.04,1.3,0,2.23-.19,2.82-.58.58-.39,1.09-1.22,1.52-2.5.07-.22.17-.33.32-.33.19,0,.3.15.3.45l-.06.61c-.07.82-.13,1.65-.13,2.52,0,1.39.02,2.65.07,3.79,0,.35-.09.52-.28.52-.13,0-.24-.13-.28-.37-.22-1.21-.67-2.08-1.35-2.62s-2.19-.8-4.49-.8c-.04.74-.04,1.97-.04,3.64,0,2.17.07,3.54.22,4.12s.52,1.06,1.11,1.39c.59.35,1.58.52,2.97.52,3.99,0,6.57-1.37,7.74-4.12.15-.33.3-.5.45-.5.17,0,.24.11.24.33,0,.13-.02.26-.07.41-.06.19-.2.93-.45,2.19-.06.26-.24,1.08-.59,2.39h-6.46c-.93,0-2.28-.06-4.08-.13-1.8-.07-3.38-.11-4.77-.13-1.37,0-2.1-.04-2.17-.09s-.09-.11-.09-.17c0-.2.17-.32.5-.32,1.13,0,1.89-.3,2.25-.91s.54-2.08.54-4.42v-3.15l.04-2.95c0-.59-.04-1.73-.09-3.38-.07-1.65-.13-2.6-.19-2.84s-.22-.46-.48-.71c-.26-.22-.83-.46-1.73-.71-.26-.07-.41-.19-.41-.33,0-.19.19-.28.54-.28l3.14.17c1.11.06,3.84.07,8.18.07h4.38Z"/>
  <path class="st1" d="M52.63,135.86c.28-.28.46-.56.56-.85.07-.24.2-.37.35-.37.07,0,.17.06.28.15.07.37.17,1.11.32,2.23l.37,2.89c0,.19-.11.28-.33.28-.13,0-.22-.11-.32-.32-.54-1.35-1.35-2.47-2.41-3.36-1.08-.89-2.23-1.32-3.49-1.32s-2.17.37-2.82,1.13c-.63.74-.95,1.54-.95,2.39,0,1.02.35,1.82,1.04,2.36s2.1,1.17,4.25,1.86c1.58.5,2.76.96,3.54,1.43.78.46,1.45,1.11,1.99,1.95s.8,1.73.8,2.67c0,1.61-.67,3.08-2.02,4.36s-2.99,1.93-4.94,1.93c-1.76,0-3.53-.56-5.31-1.65-.35.28-.58.63-.69,1.02-.07.33-.22.5-.41.5-.17,0-.28-.2-.35-.63s-.22-2.41-.45-5.97c.04-.13.15-.19.32-.19.15,0,.28.11.37.33,1.58,3.97,3.79,5.96,6.62,5.96,1.41,0,2.5-.43,3.3-1.26.8-.85,1.19-1.82,1.19-2.91,0-.76-.2-1.47-.63-2.1-.43-.63-.98-1.15-1.69-1.54-.71-.39-1.82-.83-3.34-1.32-1.95-.63-3.28-1.22-3.99-1.78-.71-.56-1.22-1.19-1.54-1.89-.33-.71-.5-1.39-.5-2.04,0-1.37.61-2.58,1.86-3.64s2.75-1.58,4.55-1.58c.69,0,1.39.11,2.13.32.74.22,1.52.54,2.34.98h0v-.02Z"/>
  <path class="st1" d="M67.73,135.6c-.8-.04-1.37-.06-1.69-.06-2.23,0-3.82.46-4.82,1.39s-1.58,1.74-1.74,2.47c-.06.26-.19.39-.41.39-.11,0-.2-.06-.3-.15.06-1.22.26-2.88.59-4.95h.95c.8,0,1.87.04,3.21.13,1.45.07,3.67.13,6.66.13s5.05-.04,5.97-.11c.83-.07,2-.13,3.47-.13.13.74.2,1.5.24,2.32.06.91.13,1.56.19,1.93v.26c0,.24-.11.37-.32.37-.13,0-.24-.04-.33-.13s-.28-.37-.59-.87c-.54-.83-1.09-1.47-1.67-1.89-.58-.43-1.22-.71-1.93-.82-.71-.13-2.13-.2-4.3-.24-.13,1.56-.19,3.32-.19,5.31,0,6.59.15,10.48.43,11.65.28,1.19,1.3,1.76,3.02,1.76.43,0,.63.09.63.26,0,.2-.2.32-.59.32h-9.46c-.24,0-.37-.09-.37-.3s.24-.3.72-.3c.82,0,1.47-.22,1.97-.69s.78-1.08.85-1.86.11-3.04.11-6.75c0-3.19-.11-6.33-.32-9.43h.02v-.02Z"/>
  <path class="st1" d="M82,152.08c.41,0,.76.15,1.08.43.3.28.45.65.45,1.08s-.15.78-.45,1.08-.65.45-1.08.45-.76-.15-1.06-.45-.45-.65-.45-1.08.15-.76.45-1.06.65-.45,1.06-.45h0Z"/>
  <path class="st1" d="M364.62,134.69c-.07,4.34-.11,7.09-.11,8.28,0,3.99.07,6.29.26,6.88s.8.93,1.87,1.02c.48.06.72.15.72.32,0,.3-.19.43-.56.43h-.33c-.41-.04-1.09-.06-2.02-.06-1.95,0-3.47,0-4.55.07h-.54c-.39,0-.58-.11-.58-.33s.2-.35.61-.39c1.26-.09,2.02-.37,2.3-.87s.41-1.63.41-3.38c0-4.81-.02-7.89-.07-9.24s-.26-2.25-.63-2.71-.96-.67-1.78-.67c-.52,0-.85-.04-.98-.09s-.2-.19-.2-.33c0-.19.22-.28.65-.3.83,0,1.73-.15,2.69-.39s1.69-.58,2.23-.95c.13-.09.24-.15.33-.15.19,0,.3.17.3.5v2.34h-.02v.02Z"/>
  <path class="st1" d="M385.65,142.56c-.91.65-1.82,1.15-2.71,1.48s-1.78.5-2.65.5c-1.71,0-3.21-.56-4.51-1.67s-1.93-2.58-1.93-4.38c0-1.95.78-3.56,2.32-4.82s3.19-1.91,4.95-1.91c2.06,0,3.82.78,5.29,2.32s2.19,3.69,2.19,6.46c0,3.38-.96,6.22-2.88,8.5s-4.34,3.43-7.29,3.43c-1.56,0-2.78-.32-3.69-.95s-1.35-1.43-1.35-2.39c0-.56.17-1,.5-1.34s.72-.5,1.15-.5c.91,0,1.35.45,1.35,1.35,0,.17,0,.39-.04.63-.02.32-.04.54-.04.69,0,1.15.87,1.73,2.65,1.73s3.21-.76,4.32-2.28,1.91-3.8,2.37-6.83h-.02v-.02ZM376.7,138.01c0,1.71.41,3.08,1.22,4.1s1.84,1.54,3.08,1.54,2.41-.45,3.4-1.35,1.45-2.25,1.45-4.03-.45-3.17-1.32-4.25-2-1.6-3.4-1.6c-1.3,0-2.36.56-3.17,1.65s-1.24,2.41-1.24,3.9v.04h-.02Z"/>
  <path class="st1" d="M404.2,142.56c-.91.65-1.82,1.15-2.71,1.48s-1.78.5-2.65.5c-1.71,0-3.21-.56-4.51-1.67s-1.93-2.58-1.93-4.38c0-1.95.78-3.56,2.32-4.82s3.19-1.91,4.95-1.91c2.06,0,3.82.78,5.29,2.32s2.19,3.69,2.19,6.46c0,3.38-.96,6.22-2.88,8.5s-4.34,3.43-7.29,3.43c-1.56,0-2.78-.32-3.69-.95s-1.35-1.43-1.35-2.39c0-.56.17-1,.5-1.34s.72-.5,1.15-.5c.91,0,1.35.45,1.35,1.35,0,.17,0,.39-.04.63-.02.32-.04.54-.04.69,0,1.15.87,1.73,2.65,1.73s3.21-.76,4.32-2.28,1.91-3.8,2.37-6.83h-.02v-.02ZM395.26,138.01c0,1.71.41,3.08,1.22,4.1s1.84,1.54,3.08,1.54,2.41-.45,3.4-1.35,1.45-2.25,1.45-4.03-.45-3.17-1.32-4.25-2-1.6-3.4-1.6c-1.3,0-2.36.56-3.17,1.65s-1.24,2.41-1.24,3.9v.04h-.02Z"/>
  <path class="st1" d="M419.86,140.63c1.6,0,2.86.43,3.77,1.26s1.37,1.89,1.37,3.12c0,1.67-.83,3.25-2.49,4.73s-3.64,2.21-5.92,2.21c-1.82,0-3.25-.41-4.29-1.22s-1.54-1.65-1.54-2.52c0-.5.17-.93.5-1.3s.78-.56,1.3-.56c.37,0,.69.13.93.39s.37.54.37.85c0,.17-.07.39-.24.69-.15.3-.24.59-.24.87,0,.63.3,1.13.91,1.52s1.34.59,2.19.59c1.15,0,2.12-.33,2.89-1.02.8-.67,1.45-1.71,1.97-3.08s.78-2.41.78-3.1c0-.89-.24-1.6-.74-2.12s-1.08-.76-1.76-.76c-.5,0-1.22.37-2.17,1.13-.74.58-1.17.87-1.26.87-.22,0-.33-.11-.33-.35,0-.09.56-.58,1.69-1.43,2.04-1.56,3.25-2.73,3.64-3.51s.59-1.52.59-2.21c0-.89-.26-1.61-.8-2.17s-1.21-.85-2.04-.85c-1.15,0-2.17.46-3.08,1.39s-1.35,1.99-1.35,3.15c0,.61.11,1.08.35,1.39s.59.46,1.08.46c.72,0,1.37-.56,1.97-1.67.07-.15.19-.22.32-.22.22,0,.33.11.33.33,0,.26-.35.8-1.02,1.58-.69.8-1.48,1.19-2.39,1.19-.82,0-1.45-.26-1.89-.76s-.67-1.11-.67-1.82c0-1.43.71-2.76,2.1-3.97s3.1-1.82,5.1-1.82c1.54,0,2.71.35,3.49,1.06s1.17,1.54,1.17,2.52c0,.72-.2,1.37-.59,1.93s-.83,1.02-1.35,1.37l-2.63,1.86h.02v-.02Z"/>
  <path class="st1" d="M63.07,291.53v24.49h-1.86v-11.58h-15.14v11.58h-1.86v-24.49h1.86v11.17h15.14v-11.17s1.86,0,1.86,0Z"/>
  <path class="st1" d="M93.09,307.08c0,6.09-3.45,9.31-9.43,9.31s-9.46-3.23-9.46-9.31v-15.55h1.86v15.18c0,5.27,2.63,7.98,7.61,7.98s7.57-2.71,7.57-7.98v-15.18h1.86v15.55Z"/>
  <path class="st1" d="M118.24,316.03l-7.42-11.1-7.57,11.1h-2.19l8.76-12.58-8.02-11.91h2.23l6.98,10.35,7.05-10.35h2.08l-8.13,11.87,8.42,12.62h-2.19,0Z"/>
  <path class="st1" d="M145.64,293.24h-8.94v22.79h-1.86v-22.79h-8.94v-1.71h19.74v1.71h0Z"/>
  <path class="st1" d="M164.08,308.34h-11.73l-3.04,7.68h-1.97l9.8-24.49h2.19l9.8,24.49h-1.97l-3.08-7.68h0ZM163.42,306.64l-4.27-10.69-.89-2.6h-.04l-.89,2.52-4.27,10.76h10.35Z"/>
  <path class="st1" d="M177.39,291.53h8.65c5.42,0,7.98,2.37,7.98,6.49,0,2.82-1.56,4.97-4.49,5.57v.04c3.19.52,5.16,2.75,5.16,5.79,0,4.16-3.04,6.61-8.65,6.61h-8.65v-24.49ZM186.07,302.81c3.97,0,5.97-1.56,5.97-4.79s-2-4.79-5.97-4.79h-6.83v9.57h6.83ZM186.41,314.32c4.19,0,6.31-1.74,6.31-4.9s-2.12-4.9-6.31-4.9h-7.16v9.8h7.16Z"/>
  <path class="st1" d="M221.1,314.32v1.71h-16.55v-24.49h1.86v22.79h14.7Z"/>
  <path class="st1" d="M246.84,314.32v1.71h-17.33v-24.49h16.74v1.71h-14.88v9.46h11.76v1.74h-11.76v9.87h15.47Z"/>
  <path class="st1" d="M290.09,291.53v24.49h-1.86v-11.58h-15.14v11.58h-1.86v-24.49h1.86v11.17h15.14v-11.17h1.86Z"/>
  <path class="st1" d="M322.52,303.78c0,7.76-4.34,12.62-11.28,12.62s-11.28-4.86-11.28-12.62,4.34-12.62,11.28-12.62,11.28,4.86,11.28,12.62ZM301.93,303.78c0,6.75,3.56,10.91,9.31,10.91s9.35-4.16,9.35-10.91-3.6-10.91-9.35-10.91-9.31,4.16-9.31,10.91Z"/>
  <path class="st1" d="M355.18,316.03h-1.78v-18.26l.22-4.45h-.04l-8.94,22.71h-1.71l-8.94-22.71h-.04l.22,4.45v18.26h-1.78v-24.49h2.78l7.38,18.55,1.22,3.75h.04l1.19-3.71,7.38-18.59h2.78v24.49Z"/>
  <path class="st1" d="M383.94,314.32v1.71h-17.33v-24.49h16.74v1.71h-14.88v9.46h11.76v1.74h-11.76v9.87h15.47Z"/>
  <path class="st1" d="M409.84,296.58l-1.6,1.3c-1.26-3.53-3.6-5.01-7.61-5.01-4.42,0-7.01,2.23-7.01,5.08,0,2.71,1.82,4.08,7.76,5.08,6.46,1.11,8.79,3.04,8.79,6.68,0,3.97-3.71,6.68-9.2,6.68-5.16,0-8.83-2.15-10.13-5.86l1.63-1.26c1,3.53,4.16,5.42,8.54,5.42s7.24-1.74,7.24-4.86c0-2.56-1.86-4.01-7.38-4.97-6.87-1.15-9.2-3.04-9.2-6.72s3.38-6.98,8.94-6.98c4.56,0,7.68,1.78,9.24,5.42h0Z"/>
  <rect class="st0" x="190.38" y="106.66" width="17.14" height="15.66"/>
  <rect class="st1" x="190.38" y="81.16" width="17.14" height="23.4"/>
  <polygon class="st1" points="301.52 81.16 301.52 157.62 207.52 157.62 207.52 124.37 190.38 124.37 190.38 262.81 207.52 262.81 207.52 173.28 301.52 173.28 301.52 262.81 318.66 262.81 318.66 81.16 301.52 81.16"/>
  <rect class="st1" x="241.4" y="157.64" width="17.14" height="15.62"/>
  <polygon class="st1" points="241.4 155.57 258.55 155.57 258.55 24.61 241.4 24.61 241.4 106.67 147.42 106.67 147.42 24.61 130.28 24.61 130.28 206.24 147.42 206.24 147.42 122.32 241.4 122.32 241.4 155.57"/>
  <rect class="st1" x="241.4" y="175.34" width="17.14" height="30.89"/>
  <line class="st2" x1="318.35" y1="60.51" x2="318.35" y2="270.85"/>
  <line class="st2" x1="191.73" y1="71.1" x2="191.73" y2="104.45"/>
  <line class="st2" x1="170.54" y1="261.51" x2="227.15" y2="261.51"/>
  <line class="st2" x1="288.59" y1="261.36" x2="332.95" y2="261.36"/>
  <line class="st2" x1="116.45" y1="24.85" x2="160.84" y2="24.85"/>
  <line class="st2" x1="131.65" y1="8" x2="131.65" y2="218.35"/>
</svg>